# xmcd CD database file
#
# Track frame offsets:
#	150
#	32920
#	62350
#	93539
#	122082
#	148462
#	177425
#	189654
#	224831
#	250645
#	285950
#
# Disc length: 4302 seconds
#
# Revision: 1
# Processed by: cddbd v1.5.1PL2 Copyright (c) Steve Scherf et al.
# Submitted via: CDex 1.51
#
DISCID=aa10cc0b
DTITLE=William Ash - The Phoenix
DYEAR=2005
DGENRE=Jazz
TTITLE0=Bill's Groove
TTITLE1=Crystal Bird
TTITLE2=Koba
TTITLE3=The Sidewinder
TTITLE4=Moon Shine
TTITLE5=It
TTITLE6=Constellation
TTITLE7=Bewitched
TTITLE8=Parker's Rhythm
TTITLE9=All In All
TTITLE10=Celery
EXTD=YEAR: 2005
EXTT0=
EXTT1=
EXTT2=
EXTT3=
EXTT4=
EXTT5=
EXTT6=
EXTT7=
EXTT8=
EXTT9=
EXTT10=
PLAYORDER=
